<svg xmlns="http://www.w3.org/2000/svg" id="svg14" width="332.45" height="252.968" version="1.1"><defs id="defs18"><filter id="filter1942" style="color-interpolation-filters:sRGB"/><filter id="filter2206" style="color-interpolation-filters:sRGB"><feFlood id="feFlood2196" flood-color="#000" flood-opacity=".498" result="flood"/><feComposite id="feComposite2198" in="flood" in2="SourceGraphic" operator="in" result="composite1"/><feGaussianBlur id="feGaussianBlur2200" in="composite1" result="blur" stdDeviation=".1"/><feOffset id="feOffset2202" dx=".898" dy="7.784" result="offset"/><feComposite id="feComposite2204" in="SourceGraphic" in2="offset" operator="over" result="composite2"/></filter></defs><g id="g12" transform="matrix(.66216 0 0 .9493 293.624 -1053.72)"><path id="path2" fill="#fff" d="m-268.57 1176.6 32.857 12.857 216.43 99.286c49.13-43.735-179.76-27.857-272.14-45.714l22.857-66.429z"/><path id="path4" fill="#aeb7c7" d="m-264.79 1313.6-12.5-4.302c-6.875-2.366-32.75-10.86-57.5-18.878-24.75-8.017-46.721-15.445-48.825-16.507-2.655-1.34-4.407-3.213-5.728-6.122-2.434-5.362-2.411-6.18.248-8.658 1.373-1.28 1.84-2.395 1.25-2.982-1.51-1.497-14.8-6.933-29.944-12.248-20.273-7.114-24.056-9.652-24.875-16.692-.283-2.43.483-3.765 4.265-7.43 2.535-2.456 6.091-5.211 7.901-6.121 2.686-1.35 113.75-39.567 139.91-48.146 10.282-3.37 33.295-6.579 33.295-4.641 0 .514 2.202.721 4.91.46 8.802-.845 10.864-.317 137.59 35.216 20.9 5.86 46.1 12.907 56 15.66 9.9 2.753 20.924 5.852 24.5 6.888 3.574 1.036 19.915 5.527 36.311 9.98 37.958 10.31 39.28 10.816 46.77 17.944 5.892 5.607 6.046 5.885 5.369 9.675-.384 2.147-1.647 4.945-2.808 6.217-2.268 2.486-2.732 2.718-51.642 25.855-17.875 8.456-33.175 16.218-34 17.249-1.88 2.35-5.369 4.076-26.345 13.029-32.59 13.91-67.166 29.204-68.107 30.125l-136.05-35.572zm246.71-38.882c1.388-2.171-12.562-7.236-30.712-11.149-4.4-.949-8.9-2.077-10-2.506-4.196-1.64-5.453-1.848-5.984-.989-.302.488-.07 1.184.516 1.546.75.463.74 1.05-.032 1.98-1.288 1.552.33 3.032 2.112 1.93.611-.377 1.399-.246 1.75.292.35.538 7.364 3.213 15.586 5.944 12.66 4.206 15.797 4.897 20.5 4.516 3.054-.248 5.873-.951 6.264-1.564zm-234.21-36.652c1.267-.847 1.064-1.388-1.306-3.485-3.512-3.107-7.92-3.228-10.655-.293-3.576 3.838-2.58 4.816 4.878 4.796 3.07-.01 6.258-.467 7.083-1.018zm-.5-14.05c0-.946-1.136-1.417-3.417-1.417-4.195 0-5.298 2.194-1.392 2.77 3.853.569 4.809.3 4.809-1.353zm-1.434-15.952c1.109-.594 1.934-2.087 1.934-3.5 0-1.356-.113-2.467-.25-2.47-.138 0-2.902-.44-6.143-.971-3.24-.531-6.273-.73-6.739-.443-.94.582 1.652 5.225 4.003 7.17 1.838 1.52 4.601 1.602 7.195.214zm1.734-12.165c1.434-1.434 1.59-5.441.244-6.273-.526-.325-.717-1.217-.423-1.982.638-1.664-2.98-5.545-5.17-5.545-.853 0-2.878.687-4.5 1.526-2.472 1.278-2.949 2.13-2.936 5.25.008 2.048.359 4.264.779 4.924 1.812 2.851 9.85 4.257 12.006 2.1zm-8.55-4.462c-.688-.278-1.25-1.367-1.25-2.421 0-1.355.701-1.917 2.393-1.917 2.705 0 4.019 2.188 2.329 3.878-1.2 1.2-1.53 1.244-3.472.46z"/><path id="path6" fill="#747a86" d="m-257.4 1315.2-36.334-11.998c-19.984-6.599-46.963-15.44-59.953-19.646-18.966-6.142-24.155-8.208-26.342-10.49-3.6-3.757-4-9.1-.79-10.521 4.866-2.151 1.906-5.143-9.25-9.348-4.4-1.659-14.525-5.307-22.5-8.107-14.312-5.025-18.334-7.063-20.4-10.339-.756-1.199-.719-2.007.131-2.857.914-.914 2.97-.483 8.978 1.884 7.845 3.09 123.83 41.233 230.1 75.669 62.695 20.316 67.31 21.41 82.708 19.608 16.63-1.947 27.894-6.022 65.986-23.871 56.533-26.492 92.784-43.16 93.862-43.16.68 0 1.744-.508 2.364-1.127 1.441-1.441 6.273-.278 6.273 1.51 0 1.95-6.09 5.834-17.5 11.158-5.5 2.566-19.675 9.158-31.5 14.65-23.158 10.753-35.307 17.035-38.527 19.922-1.114.999-8.54 4.59-16.5 7.979-29.71 12.649-71.738 31.29-79.465 35.246-10.39 5.318-14.053 5.304-30.008-.116-6.6-2.243-13.688-4.385-15.75-4.76l-85.58-31.286zm153.41 21.358c5.855-2.446 3.376-3.935-4.964-2.982-8.49.971-13.437.952-19.992-.076-6.79-1.065-5.838 1.39 1.461 3.767 6.313 2.056 17.7 1.713 23.494-.709zm47.426-42.149c-4.675-1.363-15.7-4.683-24.5-7.378-8.8-2.696-24.775-7.423-35.5-10.504-21.558-6.195-38-11.432-38-12.104 0-.916 33.049 7.787 73 19.225 16.225 4.644 31.862 9.117 34.75 9.939 2.888.821 5.25 1.93 5.25 2.465 0 1.629-6.05.966-15-1.643zm17-6.626c-9.717-2.437-84.333-23.528-96.5-27.277a5286.41 5286.41 0 0 0-32.943-9.984c-19.658-5.885-29.964-9.423-29.32-10.068.585-.585 14.457 2.919 35.713 9.02 10.697 3.071 19.837 5.454 20.31 5.297.834-.278-47.676-14.813-81.26-24.348-9.075-2.577-18.33-5.52-20.566-6.542-2.236-1.022-4.751-1.857-5.589-1.857-2.422 0-17.448 4.898-28.346 9.24-10.135 4.039-46.34 17.828-58.807 22.398-6.998 2.566-11.466 2.546-13.63-.062-1.218-1.468-1.255-1.452 30.436-13.05 11-4.026 27.875-10.349 37.5-14.05l17.5-6.73 15-.32 15-.32 16.5 4.89c36.841 10.914 128.28 38.122 139.5 41.507 59.76 18.031 57.808 17.322 57.312 20.804-.286 2.01-.893 2.198-7.312 2.26-3.85.039-8.575-.326-10.5-.809zm32-20.29c-4.125-1.383-16.05-5-26.5-8.04-26.719-7.77-40.844-12.091-49.298-15.083-4.014-1.42-7.53-2.35-7.814-2.067-.284.284 2.325 1.479 5.798 2.655 3.473 1.177 7.439 2.802 8.814 3.611l2.5 1.472-3-.67c-1.65-.369-19.65-6.244-40-13.057-20.35-6.813-42.85-14.125-50-16.25-27.02-8.026-60.186-17.041-65-17.667-6.761-.88-8.5-1.928-8.5-5.125 0-3.958-2.996-11.17-6.628-15.958-2.775-3.658-3.36-4.009-4.466-2.677-.7.843-2.96 2.394-5.023 3.447-4.838 2.467-6.883 5.47-6.883 10.104 0 4.701-.873 5.205-5.596 3.232-3.178-1.328-4.478-1.393-7.856-.39-6.247 1.856-57.21 21.622-84.795 32.887-26.628 10.875-29.205 11.446-36.57 8.104-5.138-2.332-17.183-13.581-17.183-16.048 0-2.07-1.363-1.491 23.5-9.99 18.846-6.44 75.489-25.995 107.44-37.09l14.436-5.012 20.064.385 20.064.384 24 7.235c34.675 10.453 144.42 41.23 215 60.294 26.027 7.03 30.5 8.685 30.5 11.28 0 2.831-13.37 13.778-21.808 17.855-10.552 5.099-15.26 5.506-25.192 2.178zm-153.5-4.468c-1.26-.542-1.445-.86-.5-.86.825 0 2.4.387 3.5.86 1.26.541 1.446.859.5.859-.825 0-2.4-.387-3.5-.86zm-108.32-22.667c.487-2.51 2.823-2.854 2.823-.417 0 1.229-.645 2.084-1.573 2.084-.928 0-1.441-.68-1.25-1.667zm30.054.115c-3.106-2.175-4.788-5.448-2.8-5.448 1.395 0 7.57 5.274 7.57 6.466 0 1.057-2.6.502-4.77-1.018z"/><path id="path8" fill="#5b5b5a" d="M-257.74 1318.2c-.734-.6-26.31-9.283-56.835-19.293-30.525-10.01-57.435-18.901-59.799-19.756-8.007-2.896-10.83-10.164-5.464-14.072 5.073-3.696 2.6-5.003-33.684-17.809-14.252-5.03-20.696-9.072-18.314-11.487.992-1.006 2.283-.824 6.5.917 6.233 2.574 45.899 15.723 128.76 42.685 33.275 10.827 83 27.025 110.5 35.995 27.5 8.97 51.238 16.59 52.75 16.936 3.477.793 3.593 2.589.166 2.589-3.638 0-2.634 2.091 2.138 4.453 5.618 2.78 19.499 3.354 26.323 1.087 2.804-.931 5.387-2.159 5.738-2.728.915-1.48-1.578-2.779-5.366-2.797-3.464-.016-4.412-1.535-1.5-2.401.963-.287 4.817-1.217 8.565-2.068 8.742-1.985 22.83-7.72 44.185-17.988 9.35-4.496 20.6-9.687 25-11.536 4.4-1.85 16.695-7.561 27.323-12.692s19.466-9.33 19.641-9.33c.175 0 6.475-2.925 13.998-6.5 7.524-3.575 14.458-6.5 15.41-6.5 1.831 0 4.128 1.816 4.128 3.265 0 .476-4.837 3.11-10.75 5.853-5.912 2.743-13 6.037-15.75 7.32-23.035 10.746-34.844 15.622-35.452 14.638-.763-1.235-6.743-.379-7.654 1.096-.311.503-.05 1.536.58 2.294.918 1.107.195 1.912-3.665 4.076-2.644 1.483-6.72 3.982-9.054 5.553-4.2 2.826-16.664 8.442-29.254 13.18-3.575 1.346-9.65 4.025-13.5 5.954-3.85 1.93-8.125 3.852-9.5 4.272-1.375.42-5.875 2.321-10 4.224s-12.9 5.88-19.5 8.838c-6.6 2.957-14.651 6.74-17.891 8.407-3.363 1.73-7.444 3.03-9.51 3.03-1.99 0-11.036-2.435-20.1-5.41l-99.163-34.297zm185.66-26.811c-3.85-1.329-5.468-2.155-3.596-1.836 4.2.715 14.16 4.198 12.096 4.23-.825.012-4.65-1.065-8.5-2.394zm36.5-3.01c-55.261-16.687-131.24-39.415-147-43.975-56.116-16.234-64-18.786-64-20.72 0-.604 3.026-.829 7.75-.577 5.972.318 13.714 2.201 33.75 8.21 14.3 4.29 54.575 16.326 89.5 26.747 96.175 28.697 94.582 28.163 93.391 31.267-.933 2.43-2.573 2.314-13.391-.952zm-73.657-17.91c-23.993-6.863-35.675-10.563-35.115-11.123.946-.946 57.811 15.412 59.689 17.17 1.17 1.096-4.366-.266-24.574-6.046zm115.66-1.313c0-1.37-2.984-2.695-13.75-6.107-24.428-7.742-40.732-11.193-41.533-8.791-.562 1.687-13.421-1.671-36.716-9.588-24.522-8.334-55.099-17.683-67.508-20.642-46.557-11.101-81.938-20.417-83.983-22.114-.858-.712-1.51-2.881-1.51-5.023 0-2.277-.544-3.98-1.374-4.299-.87-.334-1.644-3.035-2.106-7.357-.401-3.756-1.39-8.108-2.198-9.672-1.769-3.423-1.554-3.698 3.346-4.283 4.532-.542 11.377 1.12 40.833 9.917 25.83 7.714 131.66 37.398 182.5 51.188 50.39 13.669 53.291 14.533 55.317 16.471 1.744 1.67 1.526 2.008-5.472 8.488-7.661 7.093-12.1 9.824-19.726 12.139-5.886 1.786-6.118 1.774-6.12-.327zm46.065-2.673c-.68-.819-.972-1.917-.65-2.439.927-1.498 4.719-.063 4.384 1.659-.418 2.158-2.27 2.545-3.734.78zm-401.06-9.592c-2.113-1.387-.836-2.085 13-7.107 6.325-2.296 22.3-8.21 35.5-13.144 13.2-4.934 26.925-10.032 30.5-11.331 6.52-2.369 14.417-3.157 15.417-1.538.294.476-4.067 2.447-9.691 4.381-5.624 1.934-23.276 8.56-39.226 14.725-42.159 16.296-42.065 16.267-45.5 14.013zm-44.5-16.984c-1.65-.366-4.562-1.479-6.47-2.473-4.723-2.459-15.03-12.431-15.03-14.541 0-1.355 8.032-4.454 38.75-14.951 21.312-7.283 45.05-15.234 52.75-17.669 7.7-2.435 16.25-5.36 19-6.5 12.912-5.35 33.345-11.858 37.25-11.862 2.338 0 4.25.108 4.25.246-.001.137-.774 3.625-1.719 7.75-.944 4.125-1.727 9.687-1.739 12.36l-.021 4.862-4.805-.57c-2.643-.313-5.798-.15-7.01.361-1.214.511-15.075 5.86-30.804 11.885-15.729 6.025-38.679 15.108-51 20.183-26.066 10.737-29.363 11.814-33.403 10.918z"/><path id="path10" fill="#1b1b1c" d="M-368.23 1279.5c-17.269-5.478-19.617-6.697-20.767-10.788-.785-2.795-.584-3.516 1.475-5.275 1.311-1.12 2.384-2.768 2.384-3.661 0-2.764-5.232-6.2-13.032-8.56-51.993-18.606-8.892-6.628 15.532 1.383 27.488 8.893 143.18 46.896 153.5 50.42 11.75 4.013 26.557 10.132 27.805 11.488.382.415-.866.457-2.774.093-11.398-2.177 14.9 7.226 52.47 18.76 4.4 1.352 10.474 3.378 13.5 4.503 3.024 1.125 7.15 2.06 9.167 2.079 7.396.066 7.345 1.09-.261 5.217-3.974 2.156-8.339 4.797-9.7 5.868-4.415 3.472-11.252 2.628-29.77-3.678l-199.53-67.85zm158.59 33.474c-.34-.55-1.293-1-2.118-1s-1.222.45-.882 1c.34.55 1.293 1 2.118 1s1.222-.45.882-1zm-113.65-109.94c3.226-2.073 9.153-3.874 9.153-2.78 0 .291-1.913 1.2-4.25 2.018l-6.25 2.2c-1.1.392-.494-.255 1.347-1.438z"/></g><style id="style845" type="text/css">.st0{fill:#388e3c}.st1{fill:#ff4081}.st2{fill:#4caf50}.st3{fill:none;stroke:#31352e;stroke-width:6;stroke-linecap:round;stroke-linejoin:round;stroke-miterlimit:10}</style><g id="g998" style="filter:url(#filter2206)" transform="scale(1.63363) rotate(-40 86.031 12.088)"><path id="path875" d="M111.9 56.2c11 6.2 9.1 17.1 9.1 17.1s-3.2 1.6-8.1 1.3c-3.9-.3-8.9-1.8-14-6.6-.3-2.5-1.3-4.7-3-6.5-.5-.5-1.1-1-1.7-1.4 7.4.2 13.3-1.7 17.7-3.9z" class="st0"/><path id="path877" d="m112.8 74.6-.1 2.1c1.1 4.6-.5 10.2-4.6 14.3-4.1 4.1-10 5.4-13.4 4.8l-.8-.3c1.5-4.6.8-9.3-2.3-12.4l-.2-.3c.2-.2.5-.3.7-.5.1 0 .1-.1.2-.1.6-.4 1.1-.9 1.7-1.5 3.7-3.7 5.4-8.5 4.9-12.7 5.1 4.8 10 6.3 13.9 6.6z" class="st1"/><path id="path879" d="M120.3 50.2s-2.9 3.3-8.4 6c-4.3 2.2-10.3 4.1-17.8 3.9-3.3-2.1-7.6-2.2-11.7-.6l-.1-.1c4.2-5.5 4.6-12.5 0-17 23.8-8.1 38 7.8 38 7.8z" class="st2"/><path id="path881" d="M94.1 60.2c.6.4 1.2.8 1.7 1.4 1.8 1.8 2.7 4 3 6.5.5 4.2-1.2 9-4.9 12.7-.5.5-1.1 1-1.7 1.5-.1 0-.1.1-.2.1-.2.2-.5.3-.7.5-4 2.8-8.8 3.6-12.7 2.3-.1 0-.1-.1-.2-.1-8-4.3-7.7-13.9-3.6-19.5l-.1-.1c2.4-1 4.4-2.5 5.7-3.8.7-.7 1.3-1.4 1.8-2.1l.1.1c4.2-1.8 8.5-1.6 11.8.5z" class="st1"/><path id="path883" d="m67.4 95.5-2.4-.3c5.6-.8 10.7-5.5 12.9-9.5l.4-.8c.1 0 .1.1.2.1 3.9 1.3 8.7.5 12.7-2.3l.2.3c3.1 3.1 3.9 7.9 2.3 12.4-.8 2.3-2.2 4.7-4.2 6.6-3.3 3.3-7.4 5-11.2 5-2.1 0-4.2-.5-5.9-1.7-4.5-2.8-5.3-6.4-5-9.8z" class="st1"/><path id="path885" d="M82.3 42.5c4.6 4.6 4.1 11.5 0 17-.6.7-1.2 1.5-1.8 2.1-1.3 1.3-3.3 2.7-5.7 3.8-3.3 1.4-7.2 2.1-10.8.2-.9-.5-1.8-1.1-2.7-2-3.2-3.2-4.7-7.8-2.6-12.8.8-2.1 2.3-4.2 4.5-6.4.5-.5.9-.9 1.4-1.3 5.6-4.5 12.9-5 17.3-1 .2.1.3.2.4.4z" class="st1"/><path id="path887" d="M74.3 4.2s15.9 14.2 7.7 38c-4.4-4-11.8-3.5-17.3 1 1.6-4 1.5-8.4-.6-11.6l.2-.1c-.4-7.9 1.6-14.2 3.9-18.8 2.8-5.6 6.1-8.5 6.1-8.5Z" class="st2"/><path id="path889" d="m54.1 114.9-.9.5c-3.7 11.1-19.5 11.2-23.3 3.5v-.1c.5-.4.9-.8 1.3-1.2 3.1-3.1 4.4-7.4 3.8-11.6l.4-1.7c8.9 2.9 17.5-6.1 21.3-11.1l.1-.1c2.8 1.9 5.7 2.4 8.5 2l2.4.2c-.4 3.4.5 7 5.1 10 1.7 1.1 3.8 1.6 5.9 1.7v.1c-4.3 10.4-18 15.2-24.6 7.8z" class="st1"/><path id="path891" d="m78.4 85-.4.8c-2.3 4-7.3 8.6-12.9 9.5-2.8.4-5.7-.1-8.5-2-.8-.5-1.5-1.1-2.2-1.9-5.1-5.1-4-12.3-4-12.3l-.1-.7c3.8-.8 7.5-3 10.7-6.2l3.1-6.7c3.5 1.8 7.5 1.2 10.8-.2l.1.1c-4.3 5.7-4.6 15.3 3.4 19.6z" class="st1"/><path id="path893" d="M64.1 31.5c2.1 3.3 2.2 7.6.6 11.6-.5.4-1 .8-1.4 1.3-2.2 2.2-3.6 4.3-4.5 6.4h-.1c-4 3.1-8.5 3.8-12.5 2.6C44.9 53 43 52 42 51.1c-.1-.1-.3-.2-.4-.3-4.1-4.1-4.1-10.9-.4-16.4.6-1 1.4-1.9 2.2-2.7 4-4 9.3-5.7 13.8-4.7 2 .4 3.9 1.3 5.4 2.8.7.5 1.1 1 1.5 1.7z" class="st1"/><path id="path895" d="m64.3 31.3-.2.1c-.4-.6-.9-1.2-1.4-1.8-1.5-1.5-3.3-2.4-5.4-2.8l.1-.3c-3.4-3.4-5.4-6.8-6.5-9.9-2.6-7.5.2-13.2.2-13.2s10.8-1.9 17.1 9c-2.3 4.7-4.2 11-3.9 18.9z" class="st0"/><path id="path897" d="m64 65.6-3.1 6.7c-3.1 3.1-6.9 5.3-10.7 6.2-4.5 1-9 0-12.6-3.6-.5-.5-.9-1-1.3-1.5-2.2-3.1-2.9-7.1-2.2-10.6.1-.3.1-.6.2-.9 1.3-4.5 5.4-8.1 5.9-8.5l1.8-2.1c1 .9 2.8 1.9 4.1 2.3 4 1.2 8.5.5 12.5-2.6h.1c-2.1 5-.6 9.6 2.6 12.8.9.7 1.8 1.3 2.7 1.8z" class="st1"/><path id="path899" d="m57.4 26.6-.1.3c-4.5-.9-9.8.7-13.8 4.7-.9.9-1.6 1.8-2.2 2.7-3.3-1-7.2-.4-10.7 1.5l-1-1.2c-.6-3.4.8-9.4 4.8-13.4 4.1-4.1 9.7-5.7 14.3-4.6l2.2.1c1.1 3.1 3.1 6.4 6.5 9.9z" class="st1"/><path id="path901" d="M56.6 93.2c-3.8 5.1-12.4 14.1-21.3 11.2-2-.6-4-1.8-5.9-3.8-.8-.8-1.4-1.6-2-2.4C23 91.7 25 83.5 30 77.7c.1-.1.2-.3.3-.4l6-4c.4.5.8 1.1 1.3 1.5 3.6 3.6 8.1 4.6 12.6 3.6l.1.7s-1.1 7.2 4 12.3c.8.7 1.5 1.3 2.3 1.8z" class="st1"/><path id="path903" d="m42 51.1-1.8 2.1c-.5.5-4.6 4.1-5.9 8.5l-2-.6c-2.7-.2-5.9-1.4-8.3-3.9-1.3-1.5-2-3.4-2.3-5.4-.6-4.3 1.1-9.2 4.9-13 1.2-1.2 2.6-2.2 4-3 3.5-1.9 7.4-2.5 10.7-1.5-3.7 5.5-3.7 12.4.4 16.4.1.2.2.3.3.4z" class="st1"/><path id="path905" d="m36.3 73.3-6 4c-.1.1-.2.3-.3.4l-.1-.1C24.6 80.9 18 79.9 14 75.8c-5.4-5.4-4.8-14 1.7-19.8 1.6-1.5 4.4-3.2 6.1-4.2h.1c.3 2 1 3.9 2.3 5.4 2.4 2.5 5.6 3.7 8.3 3.9l2 .6c-.1.3-.2.6-.2.9-.9 3.6-.2 7.6 2 10.7z" class="st1"/><path id="path907" d="m35.2 104.4-.4 1.7c.6 4.2-.7 8.5-3.8 11.6-.4.4-.8.8-1.3 1.2-5.4 4.5-14.2 6.3-20.2.3-5.5-5.5-4.1-15.1-.2-20.7l.4-.9c.5.6 1 1.1 1.7 1.6 6 5 12.4 1.7 15.1-.9l.8-.1c.6.8 1.2 1.6 2 2.4 2 2 3.9 3.2 5.9 3.8z" class="st1"/><path id="path909" d="m29.8 77.6.1.1c-5 5.8-7 14-2.6 20.5l-.8.1c-2.6 2.6-9.1 5.9-15.1.9-.6-.5-1.2-1.1-1.7-1.6-4.1-4.8-4-11.7-.6-16.6l4.7-5.2c4.2 4.1 10.8 5 16 1.8z" class="st1"/><path id="path911" d="M64.7 43.1c1.6-4 1.5-8.4-.6-11.6-.4-.6-.9-1.2-1.4-1.8-1.5-1.5-3.3-2.4-5.4-2.8-4.5-.9-9.8.7-13.8 4.7-.9.9-1.6 1.8-2.2 2.7-3.7 5.5-3.7 12.4.4 16.4.1.1.2.2.4.3 1 .9 2.8 1.9 4.1 2.3 4 1.2 8.5.5 12.5-2.6" class="st3"/><path id="path913" d="M48.7 16.6c-4.6-1.1-10.2.5-14.3 4.6-4 4.1-5.4 10-4.8 13.4" class="st3"/><path id="path915" d="M94.6 95.8c3.4.6 9.4-.8 13.4-4.8 4.1-4.1 5.7-9.7 4.6-14.3" class="st3"/><path id="path917" d="M82.4 59.6c4.1-1.7 8.4-1.5 11.7.6.6.4 1.2.8 1.7 1.4 1.8 1.8 2.7 4 3 6.5.5 4.2-1.2 9-4.9 12.7-.5.5-1.1 1-1.7 1.5-.1 0-.1.1-.2.1-.2.2-.5.3-.7.5-4 2.8-8.8 3.6-12.7 2.3-.1 0-.1-.1-.2-.1-8-4.3-7.7-13.9-3.6-19.5" class="st3"/><path id="path919" d="M67.5 95.2v.3c-.4 3.4.5 7 5.1 10 1.7 1.1 3.8 1.6 5.9 1.7 3.8 0 8-1.7 11.2-5 2-2 3.4-4.3 4.2-6.6 1.5-4.6.8-9.3-2.3-12.4" class="st3"/><path id="path921" d="M32.4 61.1c-2.7-.2-5.9-1.4-8.3-3.9-1.3-1.5-2-3.4-2.3-5.4-.6-4.3 1.1-9.2 4.9-13 1.2-1.2 2.6-2.2 4-3 3.5-1.9 7.4-2.5 10.7-1.5" class="st3"/><path id="path923" d="M29.8 77.6c-5.3 3.3-11.9 2.3-15.9-1.8-5.4-5.4-4.8-14 1.7-19.8 1.6-1.5 4.4-3.2 6.1-4.2" class="st3"/><path id="path925" d="M56.5 93.3c-3.8 5-12.3 14-21.3 11.1-2-.6-4-1.8-5.9-3.8-.8-.8-1.4-1.6-2-2.4C23 91.7 25 83.5 30 77.7c.1-.1.2-.3.3-.4" class="st3"/><path id="path927" d="M9.2 81c-3.4 4.9-3.5 11.8.6 16.6.5.6 1 1.1 1.7 1.6 6 5 12.4 1.7 15.1-.9" class="st3"/><path id="path929" d="M9.4 98.5c-3.9 5.5-5.3 15.2.2 20.7 6 6 14.8 4.2 20.2-.3.5-.4.9-.8 1.3-1.2 3.1-3.1 4.4-7.4 3.8-11.6" class="st3"/><path id="path931" d="M53.2 115.4c-3.7 11.1-19.5 11.2-23.3 3.5" class="st3"/><path id="path933" d="M51 109c.6 2.5 1.7 4.4 3 5.9 6.7 7.3 20.3 2.6 24.4-7.8" class="st3"/><path id="path935" d="M78 85.8c-2.3 4-7.3 8.6-12.9 9.5-2.8.4-5.7-.1-8.5-2-.8-.5-1.5-1.1-2.2-1.9-5.1-5.1-4-12.3-4-12.3" class="st3"/><path id="path937" d="M40.2 53.2c-.5.5-4.6 4.1-5.9 8.5-.1.3-.2.6-.2.9-.7 3.5 0 7.5 2.2 10.6.4.5.8 1.1 1.3 1.5 3.6 3.6 8.1 4.6 12.6 3.6 3.8-.8 7.5-3 10.7-6.2" class="st3"/><path id="path939" d="M82.3 59.5c-.6.7-1.2 1.5-1.8 2.1-1.3 1.3-3.3 2.7-5.7 3.8-3.3 1.4-7.2 2.1-10.8.2-.9-.5-1.8-1.1-2.7-2-3.2-3.2-4.7-7.8-2.6-12.8.8-2.1 2.3-4.2 4.5-6.4.5-.5.9-.9 1.4-1.3 5.6-4.5 12.9-5 17.3-1l.3.3c4.7 4.6 4.2 11.5.1 17.1z" class="st3"/><path id="path941" d="M111.9 56.2c11 6.2 9.1 17.1 9.1 17.1s-3.2 1.6-8.1 1.3c-3.9-.3-8.9-1.8-14-6.6" class="st3"/><path id="path943" d="M82.3 42.5c23.7-8.2 38 7.7 38 7.7s-2.9 3.3-8.4 6c-4.3 2.2-10.3 4.1-17.8 3.9" class="st3"/><path id="path945" d="M68.2 12.6c-6.2-11-17.1-9-17.1-9s-2.9 5.6-.2 13.2c1.1 3.1 3 6.4 6.5 9.9" class="st3"/><path id="path947" d="M82 42.1c8.2-23.7-7.7-38-7.7-38s-3.3 2.9-6 8.4C66 17 64 23.3 64.4 31.3" class="st3"/><path id="path949" d="M88.2 36.4s11.9-8 11.2-20.3" class="st3"/></g></svg>